<svg width="43" height="43" viewBox="0 0 43 43" fill="none" xmlns="http://www.w3.org/2000/svg">
<path d="M34.4375 20.9375C34.7525 20.9375 35 21.185 35 21.5C35 21.815 34.7525 22.0625 34.4375 22.0625H33.875V20.9375H34.4375ZM22.0625 20.9375H33.875V22.0625H22.0625V20.9375Z" fill="black"/>
<path d="M32.1875 35H21.5C21.815 35 22.0625 34.7525 22.0625 34.4375V33.875H32.1875C33.1213 33.875 33.875 33.1213 33.875 32.1875V22.0625H34.4375C34.7525 22.0625 35 21.815 35 21.5V32.1875C35 32.5568 34.9273 32.9226 34.7859 33.2638C34.6446 33.605 34.4374 33.9151 34.1762 34.1762C33.9151 34.4374 33.605 34.6446 33.2638 34.7859C32.9226 34.9273 32.5568 35 32.1875 35ZM35 10.8125V21.5C35 21.185 34.7525 20.9375 34.4375 20.9375H33.875V10.8125C33.875 9.87875 33.1213 9.125 32.1875 9.125H22.0625V8.5625C22.0625 8.2475 21.815 8 21.5 8H32.1875C32.5568 8 32.9226 8.07275 33.2638 8.21409C33.605 8.35543 33.9151 8.5626 34.1762 8.82376C34.4374 9.08493 34.6446 9.39497 34.7859 9.7362C34.9273 10.0774 35 10.4432 35 10.8125Z" fill="black"/>
<path d="M30.5 14.75C30.815 14.75 31.0625 14.9975 31.0625 15.3125C31.0625 15.6275 30.815 15.875 30.5 15.875H26C25.685 15.875 25.4375 15.6275 25.4375 15.3125C25.4375 14.9975 25.685 14.75 26 14.75H30.5ZM30.5 26C30.815 26 31.0625 26.2475 31.0625 26.5625C31.0625 26.8775 30.815 27.125 30.5 27.125H26C25.685 27.125 25.4375 26.8775 25.4375 26.5625C25.4375 26.2475 25.685 26 26 26H30.5ZM30.5 29.375C30.815 29.375 31.0625 29.6225 31.0625 29.9375C31.0625 30.2525 30.815 30.5 30.5 30.5H26C25.685 30.5 25.4375 30.2525 25.4375 29.9375C25.4375 29.6225 25.685 29.375 26 29.375H30.5ZM22.0625 33.875V34.4375C22.0625 34.7525 21.815 35 21.5 35C21.185 35 20.9375 34.7525 20.9375 34.4375V33.875H22.0625ZM20.9375 22.0625H22.0625V33.875H20.9375V22.0625ZM20.9375 20.9375H22.0625V22.0625H20.9375V20.9375ZM20.9375 9.125H22.0625V20.9375H20.9375V9.125ZM22.0625 8.5625V9.125H20.9375V8.5625C20.9375 8.2475 21.185 8 21.5 8C21.815 8 22.0625 8.2475 22.0625 8.5625ZM9.125 20.9375H20.9375V22.0625H9.125V20.9375ZM17 14.75C17.315 14.75 17.5625 14.9975 17.5625 15.3125C17.5625 15.6275 17.315 15.875 17 15.875H15.3125V14.75H17ZM16.8312 29.5437C17.0563 29.7575 17.0563 30.1175 16.8312 30.3313C16.73 30.4438 16.5837 30.5 16.4375 30.5C16.2913 30.5 16.145 30.4438 16.0438 30.3313L14.75 29.0375L15.5375 28.25L16.8312 29.5437ZM16.0438 26.1687C16.2575 25.9438 16.6175 25.9438 16.8312 26.1687C17.0563 26.3825 17.0563 26.7425 16.8312 26.9563L15.5375 28.25L14.75 27.4625L16.0438 26.1687ZM13.9591 28.2489L14.7466 27.4614L15.5341 28.2489L14.7466 29.0364L13.9591 28.2489ZM15.3125 15.875V17.5625C15.3125 17.8775 15.065 18.125 14.75 18.125C14.435 18.125 14.1875 17.8775 14.1875 17.5625V15.875H15.3125ZM14.1875 14.75H15.3125V15.875H14.1875V14.75ZM15.3125 13.0625V14.75H14.1875V13.0625C14.1875 12.7475 14.435 12.5 14.75 12.5C15.065 12.5 15.3125 12.7475 15.3125 13.0625Z" fill="black"/>
<path d="M14.75 27.4625L13.9625 28.25L12.6688 26.9563C12.4437 26.7425 12.4437 26.3825 12.6688 26.1688C12.8825 25.9438 13.2425 25.9438 13.4562 26.1688L14.75 27.4625ZM14.1875 14.75V15.875H12.5C12.185 15.875 11.9375 15.6275 11.9375 15.3125C11.9375 14.9975 12.185 14.75 12.5 14.75H14.1875ZM13.4562 30.3313C13.355 30.4438 13.2087 30.5 13.0625 30.5C12.9163 30.5 12.77 30.4438 12.6688 30.3313C12.4437 30.1175 12.4437 29.7575 12.6688 29.5438L13.9625 28.25L14.75 29.0375L13.4562 30.3313ZM9.125 20.9375V22.0625H8.5625C8.2475 22.0625 8 21.815 8 21.5C8 21.185 8.2475 20.9375 8.5625 20.9375H9.125Z" fill="black"/>
<path d="M8 10.8125C8 10.0666 8.29632 9.35121 8.82376 8.82376C9.35121 8.29632 10.0666 8 10.8125 8H21.5C21.185 8 20.9375 8.2475 20.9375 8.5625V9.125H10.8125C9.87875 9.125 9.125 9.87875 9.125 10.8125V20.9375H8.5625C8.2475 20.9375 8 21.185 8 21.5V10.8125ZM9.125 32.1875C9.125 33.1213 9.87875 33.875 10.8125 33.875H20.9375V34.4375C20.9375 34.7525 21.185 35 21.5 35H10.8125C10.4432 35 10.0774 34.9273 9.7362 34.7859C9.39497 34.6446 9.08493 34.4374 8.82376 34.1762C8.5626 33.9151 8.35543 33.605 8.21409 33.2638C8.07275 32.9226 8 32.5568 8 32.1875V21.5C8 21.815 8.2475 22.0625 8.5625 22.0625H9.125V32.1875Z" fill="black"/>
</svg>
