<svg width="41" height="43" viewBox="0 0 41 43" fill="none" xmlns="http://www.w3.org/2000/svg">
<path fill-rule="evenodd" clip-rule="evenodd" d="M32.6207 15.5086L31.7464 13.9914C31.0068 12.7077 29.3676 12.2648 28.0821 13.0014C27.4702 13.3619 26.7401 13.4642 26.0527 13.2857C25.3653 13.1072 24.7771 12.6626 24.4179 12.05C24.1867 11.6606 24.0626 11.2171 24.0579 10.7643C24.0787 10.0383 23.8048 9.33487 23.2986 8.81412C22.7924 8.29337 22.097 7.9997 21.3707 8H19.6093C18.8978 8 18.2156 8.28351 17.7137 8.78782C17.2118 9.29213 16.9316 9.97565 16.935 10.6871C16.9139 12.1561 15.717 13.3359 14.2479 13.3357C13.7951 13.331 13.3515 13.2068 12.9621 12.9757C11.6766 12.2391 10.0375 12.682 9.29785 13.9657L8.35928 15.5086C7.62053 16.7907 8.05736 18.4288 9.33643 19.1729C10.1678 19.6529 10.68 20.54 10.68 21.5C10.68 22.46 10.1678 23.3471 9.33643 23.8271C8.05898 24.5662 7.62168 26.2003 8.35928 27.4786L9.24643 29.0086C9.59298 29.6339 10.1744 30.0953 10.8621 30.2908C11.5498 30.4862 12.2871 30.3996 12.9107 30.05C13.5238 29.6923 14.2543 29.5943 14.94 29.7778C15.6257 29.9612 16.2097 30.411 16.5621 31.0271C16.7933 31.4165 16.9174 31.8601 16.9221 32.3129C16.9221 33.7969 18.1252 35 19.6093 35H21.3707C22.8498 35 24.0508 33.8048 24.0579 32.3257C24.0544 31.612 24.3364 30.9265 24.8411 30.4218C25.3458 29.9171 26.0313 29.6351 26.745 29.6386C27.1967 29.6507 27.6384 29.7743 28.0307 29.9986C29.3128 30.7373 30.951 30.3005 31.695 29.0214L32.6207 27.4786C32.979 26.8635 33.0774 26.131 32.894 25.4433C32.7106 24.7555 32.2606 24.1692 31.6436 23.8143C31.0266 23.4593 30.5766 22.8731 30.3932 22.1853C30.2098 21.4975 30.3081 20.765 30.6664 20.15C30.8994 19.7432 31.2367 19.4059 31.6436 19.1729C32.915 18.4292 33.3508 16.8007 32.6207 15.5214V15.5086Z" stroke="black" stroke-width="1.5" stroke-linecap="round" stroke-linejoin="round"/>
<path d="M20.4963 25.2028C22.5413 25.2028 24.1992 23.545 24.1992 21.5C24.1992 19.4549 22.5413 17.7971 20.4963 17.7971C18.4513 17.7971 16.7935 19.4549 16.7935 21.5C16.7935 23.545 18.4513 25.2028 20.4963 25.2028Z" stroke="black" stroke-width="1.5" stroke-linecap="round" stroke-linejoin="round"/>
</svg>
