<svg width="84" height="30" viewBox="0 0 84 30" fill="none" xmlns="http://www.w3.org/2000/svg">
<path d="M45.2074 27.6148C45.2116 27.7897 45.1935 27.9644 45.1536 28.1348C45.1261 28.2523 45.0681 28.3604 44.9854 28.4483C44.8869 28.5391 44.7729 28.6117 44.6489 28.6626C44.484 28.7346 44.3127 28.7909 44.1372 28.8308C43.9355 28.8779 43.7313 28.9135 43.5256 28.9376C43.3176 28.9626 43.1083 28.9754 42.8988 28.976C42.3058 28.9909 41.7152 28.8977 41.1557 28.7009C40.6967 28.5324 40.2904 28.2455 39.978 27.8694C39.6516 27.4546 39.4241 26.9709 39.3127 26.455C39.1653 25.7927 39.0959 25.1153 39.1061 24.4369V15.8262H37.0451C36.9769 15.8274 36.9097 15.8102 36.8505 15.7764C36.7913 15.7427 36.7423 15.6936 36.7086 15.6343C36.6152 15.4575 36.5729 15.2581 36.5865 15.0586C36.5849 14.9431 36.5951 14.8278 36.6172 14.7144C36.6336 14.6283 36.6648 14.5456 36.7093 14.4701C36.7423 14.4102 36.7911 14.3606 36.8505 14.3267C36.9098 14.2929 36.9774 14.2761 37.0458 14.2782H39.11V10.8841C39.1093 10.8258 39.1225 10.7681 39.1484 10.7158C39.1817 10.6587 39.2326 10.6138 39.2936 10.5879C39.383 10.5472 39.4785 10.5213 39.5763 10.5111C39.7209 10.4943 39.8664 10.4866 40.0119 10.4881C40.1626 10.4864 40.3132 10.4941 40.4629 10.5111C40.5584 10.5205 40.6515 10.5464 40.738 10.5879C40.7969 10.6169 40.847 10.661 40.8832 10.7158C40.9138 10.7666 40.9298 10.8248 40.9292 10.8841V14.2782H44.7519C44.8188 14.2769 44.8848 14.2928 44.9438 14.3243C45.0041 14.3591 45.0542 14.4092 45.089 14.4695C45.1331 14.5452 45.164 14.6278 45.1805 14.7138C45.2025 14.8272 45.2127 14.9425 45.2112 15.0579C45.2257 15.2582 45.1813 15.4584 45.0833 15.6337C45.0499 15.6915 45.002 15.7396 44.9443 15.7732C44.8867 15.8069 44.8212 15.8249 44.7545 15.8256H40.9318V24.1893C40.8859 25.0142 41.0406 25.838 41.3827 26.59C41.5491 26.8704 41.7925 27.0973 42.0838 27.2436C42.3752 27.39 42.7024 27.4498 43.0267 27.4158C43.2508 27.4185 43.4743 27.393 43.692 27.3397C43.8711 27.295 44.0472 27.2388 44.2191 27.1715C44.3722 27.1105 44.5022 27.0544 44.6093 27.0032C44.6967 26.9572 44.7933 26.931 44.892 26.9265C44.9396 26.9258 44.9867 26.9363 45.0295 26.9572C45.0747 26.9828 45.1098 27.0233 45.1287 27.0717C45.1587 27.1402 45.1802 27.2122 45.1926 27.286C45.2068 27.395 45.2117 27.505 45.2074 27.6148Z" fill="#4A9292"/>
<path d="M58.6771 21.3768C58.6872 22.4068 58.5429 23.4324 58.2491 24.4197C57.9872 25.3019 57.5523 26.1233 56.9698 26.8357C56.3968 27.525 55.6721 28.0723 54.8524 28.4349C53.9211 28.8351 52.915 29.0314 51.9016 29.0106C50.9315 29.0312 49.9671 28.8572 49.0653 28.4989C48.2813 28.1766 47.5845 27.6736 47.0318 27.0308C46.465 26.3539 46.0481 25.5644 45.8087 24.7146C45.5263 23.716 45.3899 22.6818 45.4038 21.6441C45.3937 20.6147 45.5353 19.5893 45.8241 18.6012C46.0795 17.7207 46.5113 16.9013 47.0932 16.1928C47.6672 15.5088 48.3919 14.9671 49.2105 14.6103C50.1485 14.2153 51.1592 14.0226 52.1767 14.0448C53.1461 14.0244 54.1101 14.196 55.013 14.5495C55.7959 14.8662 56.4909 15.3672 57.0389 16.0099C57.6016 16.6896 58.018 17.4781 58.2619 18.3261C58.5492 19.3171 58.689 20.345 58.6771 21.3768ZM56.7504 21.545C56.7534 20.7897 56.6764 20.0362 56.5207 19.2972C56.3839 18.6256 56.1236 17.9854 55.7531 17.4089C55.3925 16.8603 54.8977 16.4128 54.3158 16.109C53.6174 15.7662 52.8454 15.6008 52.0679 15.6273C51.3299 15.6087 50.5975 15.7604 49.9276 16.0706C49.3419 16.3532 48.835 16.7759 48.4519 17.3014C48.0539 17.8604 47.7659 18.4899 47.603 19.1564C47.4146 19.9113 47.3222 20.687 47.3279 21.465C47.3245 22.2279 47.4013 22.989 47.557 23.7359C47.6916 24.408 47.9521 25.0487 48.3246 25.6242C48.6855 26.1686 49.1805 26.6109 49.7619 26.9086C50.4517 27.216 51.1977 27.3774 51.9528 27.3827C52.708 27.3879 53.4561 27.237 54.1501 26.9394C54.7344 26.6581 55.241 26.2383 55.6258 25.7163C56.0248 25.1599 56.3128 24.5318 56.474 23.8664C56.6633 23.1072 56.7561 22.3273 56.7504 21.545Z" fill="#4A9292"/>
<path d="M72.4809 28.4408C72.4814 28.4991 72.4683 28.5567 72.4425 28.609C72.4102 28.6657 72.3587 28.7091 72.2973 28.7312C72.2087 28.7667 72.1164 28.7924 72.0222 28.808C71.8859 28.8302 71.7478 28.8405 71.6097 28.8386C71.4613 28.8411 71.313 28.8309 71.1664 28.808C71.0767 28.7942 70.9894 28.7684 70.9067 28.7312C70.8517 28.7057 70.8067 28.6627 70.7787 28.609C70.7528 28.5567 70.7396 28.4991 70.7403 28.4408V26.484C70.083 27.2588 69.2936 27.9111 68.4087 28.4107C67.712 28.7919 66.9326 28.9965 66.1385 29.0069C65.3491 29.0314 64.5646 28.8745 63.8453 28.5482C63.2484 28.2632 62.7312 27.8351 62.3395 27.3022C61.9464 26.7534 61.6657 26.1323 61.5137 25.4746C61.3302 24.6513 61.2441 23.8092 61.2571 22.9658V14.6027C61.2564 14.5443 61.2696 14.4867 61.2955 14.4344C61.3288 14.3772 61.3797 14.3323 61.4407 14.3065C61.5301 14.2656 61.6257 14.2397 61.7235 14.2297C61.868 14.2129 62.0135 14.2052 62.1591 14.2067C62.3097 14.205 62.4604 14.2127 62.6101 14.2297C62.7055 14.239 62.7986 14.2649 62.8851 14.3065C62.9442 14.3353 62.9943 14.3795 63.0303 14.4344C63.061 14.4852 63.0769 14.5434 63.0764 14.6027V22.7982C63.0609 23.5019 63.1277 24.205 63.2753 24.8931C63.3875 25.387 63.5895 25.856 63.8715 26.2767C64.1299 26.6534 64.4797 26.9584 64.888 27.1633C65.338 27.3807 65.8333 27.4882 66.333 27.4768C67.0954 27.4565 67.8315 27.1941 68.4349 26.7277C69.27 26.0947 70.018 25.3544 70.6597 24.5259V14.6027C70.659 14.5443 70.6722 14.4867 70.6981 14.4344C70.7314 14.3772 70.7824 14.3323 70.8433 14.3065C70.9328 14.2656 71.0282 14.2397 71.126 14.2297C71.2757 14.2127 71.4264 14.205 71.577 14.2067C71.7226 14.2052 71.8681 14.2129 72.0127 14.2297C72.1081 14.239 72.2013 14.2649 72.2877 14.3065C72.3467 14.3353 72.3969 14.3795 72.4329 14.4344C72.4636 14.4852 72.4795 14.5434 72.479 14.6027L72.4809 28.4408Z" fill="#4A9292"/>
<path d="M83.3299 15.307C83.3299 15.4601 83.3248 15.5902 83.3145 15.6972C83.3081 15.7858 83.2901 15.8731 83.2608 15.9569C83.2412 16.0136 83.21 16.0657 83.1693 16.1098C83.15 16.1282 83.1272 16.1424 83.1023 16.1516C83.0773 16.1608 83.0507 16.1649 83.0241 16.1635C82.9143 16.1597 82.8061 16.1365 82.7043 16.0951C82.5819 16.049 82.4393 16.0007 82.2764 15.9499C82.1135 15.8992 81.9352 15.8508 81.7416 15.8047C81.5317 15.7571 81.3171 15.7339 81.1019 15.7356C80.8224 15.7366 80.5463 15.7966 80.2915 15.9115C79.9868 16.056 79.7062 16.2467 79.4599 16.477C79.1214 16.7907 78.8142 17.1364 78.5426 17.5094C78.2215 17.9359 77.8673 18.4608 77.4801 19.0843V28.4421C77.4814 28.5043 77.4638 28.5654 77.4295 28.6173C77.3952 28.6692 77.3459 28.7094 77.2882 28.7325C77.2 28.7691 77.1076 28.7947 77.0131 28.8086C76.8639 28.8314 76.7131 28.8417 76.5621 28.8393C76.4163 28.8413 76.2706 28.8311 76.1265 28.8086C76.0297 28.794 75.9349 28.7684 75.8438 28.7325C75.7823 28.7106 75.7307 28.6672 75.6986 28.6104C75.6726 28.5581 75.6595 28.5004 75.6602 28.4421V14.6034C75.6595 14.545 75.6726 14.4874 75.6986 14.4351C75.7318 14.3779 75.7828 14.333 75.8438 14.3072C75.9283 14.2675 76.0185 14.2416 76.1112 14.2304C76.2506 14.2132 76.391 14.2056 76.5314 14.2074C76.6744 14.2058 76.8174 14.2134 76.9594 14.2304C77.05 14.2393 77.1382 14.2654 77.2191 14.3072C77.2732 14.3367 77.3176 14.3811 77.347 14.4351C77.3728 14.4874 77.3859 14.5451 77.3854 14.6034V16.7898C77.7161 16.2934 78.0841 15.8229 78.4863 15.3825C78.7737 15.0685 79.097 14.7894 79.4496 14.5509C79.7233 14.3667 80.0261 14.2298 80.3452 14.146C80.6383 14.0744 80.939 14.0385 81.2407 14.0392C81.3729 14.0392 81.5258 14.0468 81.6994 14.0622C81.8868 14.0797 82.073 14.1079 82.2572 14.1466C82.4388 14.1828 82.6176 14.2313 82.7926 14.2918C82.9085 14.3279 83.0191 14.3793 83.1214 14.4447C83.1694 14.4774 83.2109 14.5188 83.2436 14.5669C83.267 14.6104 83.285 14.6566 83.2973 14.7044C83.3153 14.7798 83.3255 14.8567 83.328 14.9341C83.3288 15.03 83.3295 15.1544 83.3299 15.307Z" fill="#4A9292"/>
<path d="M47.2183 8.32025L44.4734 10.325L41.41 8.08613C40.9332 7.73788 40.3581 7.55019 39.7676 7.55019C39.1772 7.55019 38.6021 7.73788 38.1253 8.08613L24.7401 17.8629C24.1074 18.3246 23.5927 18.9292 23.2379 19.6275C22.8832 20.3259 22.6985 21.0981 22.6989 21.8814V29.0963H17.1337V16.5292L26.4845 9.70066L24.2763 8.0874C23.7995 7.73915 23.2244 7.55148 22.6339 7.55148C22.0435 7.55148 21.4684 7.73915 20.9916 8.0874L7.60637 17.8642C6.97365 18.3259 6.45894 18.9305 6.10423 19.6288C5.74951 20.3271 5.5648 21.0994 5.56516 21.8826V29.0975H0V16.5292L22.6362 0L31.2021 6.25538L39.768 0L47.2183 5.44107C47.4449 5.60648 47.6293 5.82309 47.7565 6.07325C47.8836 6.3234 47.9499 6.60006 47.9499 6.88067C47.9499 7.16128 47.8836 7.43791 47.7565 7.68807C47.6293 7.93823 47.4449 8.15484 47.2183 8.32025Z" fill="#4A9292"/>
</svg>
